<svg t="1758884309217" class="icon" viewBox="0 0 1024 1024" version="1.1" xmlns="http://www.w3.org/2000/svg" p-id="7942" width="200" height="200"><path d="M512 303.723c-153.493 0-278.379 124.906-278.379 278.4 0 153.45 124.886 278.336 278.379 278.336 153.493 0 278.4-124.907 278.4-278.379 0-153.472-124.907-278.357-278.4-278.357z m0 514.005c-129.92 0-235.627-105.75-235.627-235.648 0-129.899 105.707-235.605 235.627-235.605 129.941 0 235.648 105.685 235.648 235.605S641.941 817.728 512 817.728z" p-id="7943" fill="#8a8a8a"></path><path d="M839.083 186.923h-88.256l-17.43-58.368c-14.72-48.896-58.922-81.792-109.973-81.792H400.597c-50.304 0-95.552 33.642-109.994 81.813l-17.515 58.347h-88.192C82.966 186.923 0 269.867 0 371.819v420.586c0 101.888 82.965 184.832 184.896 184.832h654.25c101.889 0 184.854-82.901 184.833-184.832V371.82c0-101.952-82.944-184.896-184.896-184.896z m142.165 605.504c0 78.378-63.765 142.08-142.144 142.08H184.896c-78.379 0-142.165-63.702-142.165-142.08V371.819c0-78.379 63.786-142.144 142.165-142.144l120-0.022 26.645-88.832c9.067-30.25 37.462-51.349 69.056-51.349h222.87c32.042 0 59.754 20.65 69.013 51.35l26.581 88.853h120.043c78.379 0 142.144 63.765 142.144 142.144v420.608z" p-id="7944" fill="#8a8a8a"></path></svg>