<svg t="1754911351041" class="icon" viewBox="0 0 1024 1024" version="1.1" xmlns="http://www.w3.org/2000/svg" p-id="6391" width="200" height="200"><path d="M789.26 926.35H234.74A74.75 74.75 0 0 1 183 905.88a69.85 69.85 0 0 1-22.21-51V501.69a70.17 70.17 0 0 1 18.34-47.08l0.09-0.1a75.25 75.25 0 0 1 55.49-24.29h554.55a75 75 0 0 1 55.56 24.41 70.14 70.14 0 0 1 18.36 47.06v353.18a69.68 69.68 0 0 1-21.18 50c-0.33 0.36-0.68 0.7-1 1a74.75 74.75 0 0 1-51.74 20.48z m33.55-39.62zM218.27 490.06a17.38 17.38 0 0 0-4.67 11.63v353.18a17.72 17.72 0 0 0 5.76 12.71 22.21 22.21 0 0 0 15.38 6h554.52a22.24 22.24 0 0 0 14.8-5.45l0.58-0.57a17.68 17.68 0 0 0 5.76-12.67v-353.2a17.42 17.42 0 0 0-4.71-11.64 22.15 22.15 0 0 0-16.43-7.05H234.74a22.35 22.35 0 0 0-16.47 7.06z" fill="#142E4F" p-id="6392"></path><path d="M707.31 483a26.39 26.39 0 0 1-26.39-26.39V319.36A169.52 169.52 0 0 0 512 150.44c-93.14 0-168.92 75.78-168.92 168.92v137.25a26.4 26.4 0 0 1-52.79 0V319.36a220.11 220.11 0 0 1 65.11-156.6c42-42 97.6-65.11 156.6-65.11s114.61 23.13 156.6 65.11 65.11 97.61 65.11 156.6v137.25a26.39 26.39 0 0 1-26.4 26.39z" fill="#142E4F" p-id="6393"></path><path d="M512 649.28m-60.71 0a60.71 60.71 0 1 0 121.42 0 60.71 60.71 0 1 0-121.42 0Z" fill="#FF9600" p-id="6394"></path><path d="M512 773.33a26.38 26.38 0 0 1-26.39-26.39v-95a26.39 26.39 0 1 1 52.78 0v95A26.38 26.38 0 0 1 512 773.33z" fill="#FF9600" p-id="6395"></path></svg>