<svg t="1755236607438" class="icon" viewBox="0 0 1024 1024" version="1.1" xmlns="http://www.w3.org/2000/svg" p-id="14662" width="200" height="200"><path d="M512 1024a512 512 0 1 0-512-512 512 512 0 0 0 512 512" fill="#3DACE6" p-id="14663"></path><path d="M768.8704 377.7024a209.92 209.92 0 0 1-60.3648 16.5888 105.3696 105.3696 0 0 0 46.08-58.2144 209.92 209.92 0 0 1-66.56 25.6 105.3184 105.3184 0 0 0-179.2 96.0512 298.2912 298.2912 0 0 1-216.7296-109.9776 105.5744 105.5744 0 0 0 32.5632 140.6464 105.0624 105.0624 0 0 1-47.6672-13.1584v1.28a105.2672 105.2672 0 0 0 84.3776 103.2704 102.4 102.4 0 0 1-27.6992 3.6864 104.1408 104.1408 0 0 1-19.7632-1.8432 105.1648 105.1648 0 0 0 98.2016 73.1136 212.3776 212.3776 0 0 1-155.648 43.6224 298.9568 298.9568 0 0 0 460.288-252.3136c0-4.5568 0-9.1136-0.256-13.6192a213.2992 213.2992 0 0 0 52.4288-54.528" fill="#FFFFFF" p-id="14664"></path></svg>